<svg width="17" height="23" viewBox="0 0 17 23" fill="none" xmlns="http://www.w3.org/2000/svg">
<path d="M8.49999 15.3333C8.33449 15.3337 8.1741 15.2557 8.04666 15.1129L3.79666 10.3212C3.65201 10.1585 3.56104 9.92478 3.54377 9.67138C3.5265 9.41797 3.58434 9.16566 3.70458 8.96995C3.82481 8.77424 3.99758 8.65117 4.18488 8.6278C4.37218 8.60444 4.55867 8.6827 4.70332 8.84537L8.49999 13.1387L12.2967 8.9987C12.3691 8.91909 12.4525 8.85965 12.542 8.82378C12.6315 8.7879 12.7253 8.77631 12.8181 8.78967C12.9109 8.80303 13.0009 8.84107 13.0828 8.90161C13.1647 8.96216 13.237 9.044 13.2954 9.14245C13.3603 9.24099 13.4094 9.35659 13.4397 9.48201C13.47 9.60743 13.4809 9.73997 13.4716 9.87132C13.4622 10.0027 13.433 10.13 13.3856 10.2453C13.3382 10.3607 13.2738 10.4616 13.1962 10.5416L8.94624 15.1704C8.81514 15.2907 8.65802 15.348 8.49999 15.3333Z" fill="black"/>
</svg>
