<svg width="30" height="35" viewBox="0 0 30 35" fill="none" xmlns="http://www.w3.org/2000/svg">
<path d="M21.8809 12.1878C20.8172 12.184 19.7632 12.3995 18.7792 12.822C17.7952 13.2445 16.9006 13.8657 16.1465 14.65C15.3924 15.4343 14.7937 16.3664 14.3845 17.3929C13.9753 18.4194 13.7638 19.5202 13.762 20.6323V29.1638C13.762 29.5101 13.8936 29.8422 14.1278 30.0871C14.3621 30.332 14.6798 30.4696 15.011 30.4696H17.9255C18.2568 30.4696 18.5745 30.332 18.8087 30.0871C19.043 29.8422 19.1746 29.5101 19.1746 29.1638V20.6323C19.1743 20.2367 19.2538 19.8456 19.4078 19.4843C19.5618 19.1231 19.7869 18.7998 20.0684 18.5356C20.35 18.2714 20.6816 18.0721 21.0417 17.9509C21.4018 17.8297 21.7824 17.7891 22.1585 17.832C22.833 17.9208 23.4528 18.2653 23.9005 18.8002C24.3482 19.3351 24.5925 20.0231 24.5872 20.7338V29.1638C24.5872 29.5101 24.7188 29.8422 24.953 30.0871C25.1873 30.332 25.505 30.4696 25.8363 30.4696H28.7507C29.082 30.4696 29.3997 30.332 29.634 30.0871C29.8682 29.8422 29.9998 29.5101 29.9998 29.1638V20.6323C29.998 19.5202 29.7864 18.4194 29.3773 17.3929C28.9681 16.3664 28.3693 15.4343 27.6153 14.65C26.8612 13.8657 25.9665 13.2445 24.9826 12.822C23.9986 12.3995 22.9446 12.184 21.8809 12.1878Z" fill="black"/>
<path d="M10.0148 13.4937H6.26762C5.57778 13.4937 5.01855 14.0783 5.01855 14.7995V29.1638C5.01855 29.885 5.57778 30.4696 6.26762 30.4696H10.0148C10.7047 30.4696 11.2639 29.885 11.2639 29.1638V14.7995C11.2639 14.0783 10.7047 13.4937 10.0148 13.4937Z" fill="black"/>
<path d="M8.14122 11.0713C9.86582 11.0713 11.2639 9.60965 11.2639 7.80666C11.2639 6.00367 9.86582 4.54205 8.14122 4.54205C6.41662 4.54205 5.01855 6.00367 5.01855 7.80666C5.01855 9.60965 6.41662 11.0713 8.14122 11.0713Z" fill="black"/>
</svg>
