<svg width="25" height="30" viewBox="0 0 25 30" fill="none" xmlns="http://www.w3.org/2000/svg">
<path d="M8.41041 24.514C9.94956 24.5733 11.4834 24.2767 12.9213 23.6418C14.3593 23.0069 15.6721 22.0465 16.7822 20.8173C17.8923 19.5882 18.7771 18.1153 19.3845 16.4857C19.9918 14.8561 20.3093 13.1028 20.3182 11.3294C21.0235 10.3243 21.5473 9.16697 21.8587 7.92543C21.8819 7.82734 21.88 7.7236 21.8533 7.62671C21.8265 7.52982 21.776 7.4439 21.7078 7.37931C21.6396 7.31471 21.5566 7.2742 21.4689 7.26264C21.3812 7.25108 21.2924 7.26896 21.2133 7.31415C20.8443 7.51869 20.4289 7.58476 20.0255 7.50305C19.6222 7.42134 19.2512 7.19597 18.965 6.85868C18.5996 6.39791 18.1576 6.02629 17.6652 5.76583C17.1728 5.50537 16.64 5.36137 16.0984 5.34237C15.5567 5.32337 15.0173 5.42975 14.512 5.65521C14.0068 5.88067 13.5459 6.22062 13.1569 6.65492C12.6241 7.24901 12.2339 7.9917 12.0242 8.81081C11.8144 9.62991 11.7923 10.4976 11.9598 11.3294C8.47286 11.5692 6.07882 9.6634 4.16358 7.05045C4.10605 6.97542 4.03078 6.92131 3.94698 6.89472C3.86318 6.86813 3.77446 6.87022 3.69167 6.90072C3.60888 6.93123 3.5356 6.98884 3.48077 7.06651C3.42594 7.14418 3.39194 7.23856 3.38292 7.33812C3.01806 9.6687 3.28125 12.072 4.13716 14.2253C4.99307 16.3787 6.40071 18.1788 8.171 19.384C6.98401 20.9516 5.31711 21.9306 3.51823 22.1168C3.42186 22.1352 3.33289 22.1879 3.26379 22.2674C3.19468 22.3469 3.1489 22.4493 3.13284 22.5603C3.11678 22.6712 3.13125 22.7852 3.17422 22.8862C3.2172 22.9872 3.28653 23.0703 3.37251 23.1237C4.93751 24.0242 6.66091 24.4999 8.41041 24.514Z" fill="black"/>
</svg>
