<svg width="433" height="34" viewBox="0 0 433 34" fill="none" xmlns="http://www.w3.org/2000/svg">
<path d="M22.6001 0.600001H27.2001V33H22.6001V18.45H4.7001V33H0.100098V0.600001H4.7001V14.55H22.6001V0.600001Z" fill="black"/>
<path d="M52.6528 22.8H37.4028C37.4362 25.3 38.0362 27.1167 39.2028 28.25C40.4028 29.3833 41.9362 29.95 43.8028 29.95C45.1362 29.95 46.2862 29.7833 47.2528 29.45C48.2528 29.1167 49.3528 28.6 50.5528 27.9L52.2028 30.95C49.4695 32.7167 46.6028 33.6 43.6028 33.6C40.4028 33.6 37.8362 32.7167 35.9028 30.95C34.0028 29.15 33.0528 26.3167 33.0528 22.45C33.0528 20.25 33.4528 18.25 34.2528 16.45C35.0528 14.65 36.2362 13.2167 37.8028 12.15C39.4028 11.05 41.3528 10.5 43.6528 10.5C45.5862 10.5 47.2362 10.9 48.6028 11.7C49.9695 12.4667 51.0028 13.5333 51.7028 14.9C52.4028 16.2667 52.7528 17.8333 52.7528 19.6L52.6528 22.8ZM43.6528 13.85C41.9195 13.85 40.5528 14.3667 39.5528 15.4C38.5862 16.4333 37.9528 17.85 37.6528 19.65H48.5528V19.45C48.5528 17.5833 48.1195 16.1833 47.2528 15.25C46.4195 14.3167 45.2195 13.85 43.6528 13.85Z" fill="black"/>
<path d="M66.9462 10.5C69.5129 10.5 71.4295 11.0833 72.6962 12.25C73.9962 13.4167 74.6462 15.25 74.6462 17.75V33H70.7462L70.4962 31.1C68.1962 32.7667 65.5462 33.6 62.5462 33.6C61.2795 33.6 60.1462 33.3667 59.1462 32.9C58.1462 32.4 57.3629 31.7167 56.7962 30.85C56.2629 29.95 55.9962 28.9333 55.9962 27.8C55.9962 25.9667 56.6462 24.45 57.9462 23.25C59.2462 22.0167 60.9795 21.1167 63.1462 20.55C65.3129 19.9833 67.7129 19.6667 70.3462 19.6V18.5C70.3462 17 70.0462 15.9167 69.4462 15.25C68.8462 14.55 67.8295 14.2 66.3962 14.2C63.9629 14.2 61.4295 15.0667 58.7962 16.8L56.8962 13.8C60.0962 11.6 63.4462 10.5 66.9462 10.5ZM60.5962 27.35C60.5962 28.2167 60.8462 28.8667 61.3462 29.3C61.8795 29.7333 62.6629 29.95 63.6962 29.95C65.9629 29.95 68.1795 29.2833 70.3462 27.95V22.75C67.4462 22.8833 65.0962 23.3333 63.2962 24.1C61.4962 24.8667 60.5962 25.95 60.5962 27.35Z" fill="black"/>
<path d="M92.0849 10.5C92.6515 10.5 93.1682 10.5333 93.6349 10.6C94.1015 10.6667 94.6015 10.7667 95.1349 10.9L94.3349 15.35C93.2015 14.95 92.1682 14.75 91.2349 14.75C90.1682 14.75 89.1849 14.9833 88.2849 15.45C87.3849 15.9167 86.5182 16.8 85.6849 18.1V33H81.3849V11.05L85.6849 10.6V13.75C86.5182 12.6833 87.4849 11.8833 88.5849 11.35C89.6849 10.7833 90.8515 10.5 92.0849 10.5Z" fill="black"/>
<path d="M132.264 4.5H116.614V15.4H130.264L129.764 19.3H116.614V33H112.014V0.600001H132.264V4.5Z" fill="black"/>
<path d="M147.163 10.5C147.73 10.5 148.246 10.5333 148.713 10.6C149.18 10.6667 149.68 10.7667 150.213 10.9L149.413 15.35C148.28 14.95 147.246 14.75 146.313 14.75C145.246 14.75 144.263 14.9833 143.363 15.45C142.463 15.9167 141.596 16.8 140.763 18.1V33H136.463V11.05L140.763 10.6V13.75C141.596 12.6833 142.563 11.8833 143.663 11.35C144.763 10.7833 145.93 10.5 147.163 10.5Z" fill="black"/>
<path d="M162.254 33.6C159.921 33.6 157.971 33.1 156.404 32.1C154.837 31.0667 153.671 29.6833 152.904 27.95C152.137 26.1833 151.754 24.2 151.754 22C151.754 19.3333 152.254 17.15 153.254 15.45C154.254 13.7167 155.604 12.4667 157.304 11.7C159.004 10.9 160.937 10.5 163.104 10.5C165.437 10.5 167.387 11.0167 168.954 12.05C170.521 13.05 171.687 14.4167 172.454 16.15C173.221 17.8833 173.604 19.85 173.604 22.05C173.604 24.75 173.104 26.9667 172.104 28.7C171.104 30.4 169.754 31.65 168.054 32.45C166.354 33.2167 164.421 33.6 162.254 33.6ZM162.654 30.1C166.954 30.1 169.104 27.4 169.104 22C169.104 19.5667 168.571 17.6333 167.504 16.2C166.471 14.7333 164.904 14 162.804 14C160.471 14 158.787 14.7167 157.754 16.15C156.754 17.55 156.254 19.5 156.254 22C156.254 24.4667 156.787 26.4333 157.854 27.9C158.921 29.3667 160.521 30.1 162.654 30.1Z" fill="black"/>
<path d="M204.396 10.5C206.296 10.5 207.812 11.0333 208.946 12.1C210.079 13.1667 210.646 14.9 210.646 17.3V33H206.346V19.05C206.346 17.8167 206.229 16.8667 205.996 16.2C205.762 15.5 205.396 15 204.896 14.7C204.396 14.4 203.696 14.25 202.796 14.25C201.829 14.25 200.812 14.4 199.746 14.7C198.679 14.9667 197.679 15.3333 196.746 15.8C196.812 16.4667 196.846 16.9667 196.846 17.3V33H192.546V19.05C192.546 17.8167 192.429 16.8667 192.196 16.2C191.996 15.5 191.646 15 191.146 14.7C190.646 14.4 189.946 14.25 189.046 14.25C188.112 14.25 187.129 14.4 186.096 14.7C185.062 14.9667 184.079 15.3167 183.146 15.75V33H178.846V11.1L183.146 10.6V12.7C185.712 11.2333 188.212 10.5 190.646 10.5C193.112 10.5 194.846 11.3167 195.846 12.95C197.046 12.25 198.396 11.6667 199.896 11.2C201.429 10.7333 202.929 10.5 204.396 10.5Z" fill="black"/>
<path d="M243.282 33.6C240.048 33.6 237.298 32.9 235.032 31.5C232.765 30.0667 231.048 28.0833 229.882 25.55C228.748 23.0167 228.182 20.0667 228.182 16.7C228.182 12.9667 228.882 9.85 230.282 7.35C231.682 4.85 233.548 3 235.882 1.8C238.215 0.6 240.798 0 243.632 0C246.865 0 249.615 0.716666 251.882 2.15C254.148 3.55 255.848 5.51667 256.982 8.05C258.148 10.5833 258.732 13.5333 258.732 16.9C258.732 20.6333 258.032 23.75 256.632 26.25C255.232 28.75 253.365 30.6 251.032 31.8C248.698 33 246.115 33.6 243.282 33.6ZM243.282 29.7C245.648 29.7 247.615 29.1667 249.182 28.1C250.782 27 251.965 25.5 252.732 23.6C253.532 21.7 253.932 19.4833 253.932 16.95C253.932 14.35 253.548 12.0833 252.782 10.15C252.048 8.18333 250.915 6.65 249.382 5.55C247.848 4.45 245.932 3.9 243.632 3.9C241.265 3.9 239.282 4.45 237.682 5.55C236.115 6.61667 234.932 8.1 234.132 10C233.365 11.9 232.982 14.1167 232.982 16.65C232.982 19.25 233.348 21.5333 234.082 23.5C234.848 25.4333 235.998 26.95 237.532 28.05C239.065 29.15 240.982 29.7 243.282 29.7Z" fill="black"/>
<path d="M283.04 10.6V33H279.19L278.94 31.35C276.374 32.85 273.774 33.6 271.14 33.6C269.107 33.6 267.44 33.0333 266.14 31.9C264.874 30.7333 264.24 28.9833 264.24 26.65V11.1L268.54 10.6V25.4C268.54 26.5 268.674 27.3833 268.94 28.05C269.207 28.6833 269.64 29.15 270.24 29.45C270.84 29.7167 271.674 29.85 272.74 29.85C274.34 29.85 276.34 29.2333 278.74 28V11.1L283.04 10.6Z" fill="black"/>
<path d="M300.727 10.5C301.294 10.5 301.811 10.5333 302.277 10.6C302.744 10.6667 303.244 10.7667 303.777 10.9L302.977 15.35C301.844 14.95 300.811 14.75 299.877 14.75C298.811 14.75 297.827 14.9833 296.927 15.45C296.027 15.9167 295.161 16.8 294.327 18.1V33H290.027V11.05L294.327 10.6V13.75C295.161 12.6833 296.127 11.8833 297.227 11.35C298.327 10.7833 299.494 10.5 300.727 10.5Z" fill="black"/>
<path d="M333.257 33.6C330.257 33.6 327.757 33.0167 325.757 31.85C323.757 30.6833 322.273 29.0833 321.307 27.05C320.34 24.9833 319.857 22.65 319.857 20.05V0.600001H324.457V19.05C324.457 26.0833 327.49 29.6 333.557 29.6C336.657 29.6 338.89 28.7167 340.257 26.95C341.657 25.15 342.357 22.6167 342.357 19.35V0.600001H346.957V19.9C346.957 23.0667 346.357 25.6833 345.157 27.75C343.957 29.7833 342.323 31.2667 340.257 32.2C338.223 33.1333 335.89 33.6 333.257 33.6Z" fill="black"/>
<path d="M360.898 33.6C358.931 33.6 357.165 33.3667 355.598 32.9C354.031 32.4 352.581 31.65 351.248 30.65L353.148 27.6C355.581 29.3333 358.115 30.2 360.748 30.2C362.248 30.2 363.398 29.95 364.198 29.45C364.998 28.9167 365.398 28.15 365.398 27.15C365.398 26.35 365.031 25.6667 364.298 25.1C363.598 24.5 362.348 23.9667 360.548 23.5L358.998 23.1C356.665 22.5 354.948 21.7167 353.848 20.75C352.781 19.75 352.248 18.4333 352.248 16.8C352.248 15.5667 352.598 14.4833 353.298 13.55C353.998 12.5833 354.965 11.8333 356.198 11.3C357.465 10.7667 358.881 10.5 360.448 10.5C361.948 10.5 363.381 10.6833 364.748 11.05C366.148 11.3833 367.565 11.9667 368.998 12.8L367.248 15.85C365.881 15.1167 364.698 14.6167 363.698 14.35C362.698 14.05 361.631 13.9 360.498 13.9C359.298 13.9 358.348 14.15 357.648 14.65C356.981 15.1167 356.648 15.75 356.648 16.55C356.648 17.25 356.915 17.8 357.448 18.2C358.015 18.5667 358.981 18.9333 360.348 19.3L361.898 19.7C363.798 20.2 365.315 20.7667 366.448 21.4C367.615 22.0333 368.465 22.8 368.998 23.7C369.531 24.5667 369.798 25.6167 369.798 26.85C369.798 28.1833 369.448 29.3667 368.748 30.4C368.081 31.4 367.081 32.1833 365.748 32.75C364.415 33.3167 362.798 33.6 360.898 33.6Z" fill="black"/>
<path d="M392.643 22.8H377.393C377.426 25.3 378.026 27.1167 379.193 28.25C380.393 29.3833 381.926 29.95 383.793 29.95C385.126 29.95 386.276 29.7833 387.243 29.45C388.243 29.1167 389.343 28.6 390.543 27.9L392.193 30.95C389.46 32.7167 386.593 33.6 383.593 33.6C380.393 33.6 377.826 32.7167 375.893 30.95C373.993 29.15 373.043 26.3167 373.043 22.45C373.043 20.25 373.443 18.25 374.243 16.45C375.043 14.65 376.226 13.2167 377.793 12.15C379.393 11.05 381.343 10.5 383.643 10.5C385.576 10.5 387.226 10.9 388.593 11.7C389.96 12.4667 390.993 13.5333 391.693 14.9C392.393 16.2667 392.743 17.8333 392.743 19.6L392.643 22.8ZM383.643 13.85C381.91 13.85 380.543 14.3667 379.543 15.4C378.576 16.4333 377.943 17.85 377.643 19.65H388.543V19.45C388.543 17.5833 388.11 16.1833 387.243 15.25C386.41 14.3167 385.21 13.85 383.643 13.85Z" fill="black"/>
<path d="M408.686 10.5C409.253 10.5 409.77 10.5333 410.236 10.6C410.703 10.6667 411.203 10.7667 411.736 10.9L410.936 15.35C409.803 14.95 408.77 14.75 407.836 14.75C406.77 14.75 405.786 14.9833 404.886 15.45C403.986 15.9167 403.12 16.8 402.286 18.1V33H397.986V11.05L402.286 10.6V13.75C403.12 12.6833 404.086 11.8833 405.186 11.35C406.286 10.7833 407.453 10.5 408.686 10.5Z" fill="black"/>
<path d="M423.154 33.6C421.187 33.6 419.421 33.3667 417.854 32.9C416.287 32.4 414.837 31.65 413.504 30.65L415.404 27.6C417.837 29.3333 420.371 30.2 423.004 30.2C424.504 30.2 425.654 29.95 426.454 29.45C427.254 28.9167 427.654 28.15 427.654 27.15C427.654 26.35 427.287 25.6667 426.554 25.1C425.854 24.5 424.604 23.9667 422.804 23.5L421.254 23.1C418.921 22.5 417.204 21.7167 416.104 20.75C415.037 19.75 414.504 18.4333 414.504 16.8C414.504 15.5667 414.854 14.4833 415.554 13.55C416.254 12.5833 417.221 11.8333 418.454 11.3C419.721 10.7667 421.137 10.5 422.704 10.5C424.204 10.5 425.637 10.6833 427.004 11.05C428.404 11.3833 429.821 11.9667 431.254 12.8L429.504 15.85C428.137 15.1167 426.954 14.6167 425.954 14.35C424.954 14.05 423.887 13.9 422.754 13.9C421.554 13.9 420.604 14.15 419.904 14.65C419.237 15.1167 418.904 15.75 418.904 16.55C418.904 17.25 419.171 17.8 419.704 18.2C420.271 18.5667 421.237 18.9333 422.604 19.3L424.154 19.7C426.054 20.2 427.571 20.7667 428.704 21.4C429.871 22.0333 430.721 22.8 431.254 23.7C431.787 24.5667 432.054 25.6167 432.054 26.85C432.054 28.1833 431.704 29.3667 431.004 30.4C430.337 31.4 429.337 32.1833 428.004 32.75C426.671 33.3167 425.054 33.6 423.154 33.6Z" fill="black"/>
</svg>
