<svg width="33" height="33" viewBox="0 0 33 33" fill="none" xmlns="http://www.w3.org/2000/svg">
<path d="M14.0802 2.05365C14.5776 -0.629655 18.4224 -0.629655 18.9198 2.05365C19.2756 3.9731 21.6176 4.73404 23.0337 3.39032C25.0133 1.51186 28.1238 3.77178 26.949 6.23499C26.1087 7.99701 27.5561 9.98918 29.4915 9.73444C32.1972 9.37833 33.3853 13.035 30.9871 14.3372C29.2715 15.2688 29.2715 17.7312 30.9871 18.6628C33.3853 19.965 32.1972 23.6217 29.4915 23.2656C27.5561 23.0108 26.1087 25.003 26.949 26.765C28.1238 29.2282 25.0133 31.4881 23.0337 29.6097C21.6176 28.266 19.2756 29.0269 18.9198 30.9464C18.4224 33.6297 14.5776 33.6297 14.0802 30.9464C13.7244 29.0269 11.3824 28.266 9.96633 29.6097C7.9867 31.4881 4.87618 29.2282 6.05096 26.765C6.89133 25.003 5.44393 23.0108 3.50847 23.2656C0.802788 23.6217 -0.385327 19.965 2.01293 18.6628C3.72849 17.7312 3.72849 15.2688 2.01293 14.3372C-0.385328 13.035 0.802788 9.37833 3.50847 9.73444C5.44393 9.98918 6.89133 7.99701 6.05097 6.23499C4.87618 3.77178 7.9867 1.51186 9.96633 3.39032C11.3824 4.73404 13.7244 3.9731 14.0802 2.05365Z" fill="#D75327"/>
</svg>
